<svg width="149" height="26" viewBox="0 0 149 26" fill="none" xmlns="http://www.w3.org/2000/svg">
<path d="M37.4531 6.31609H42.6801C43.4261 6.31609 44.1141 6.47109 44.7421 6.78209C45.3711 7.09309 45.8651 7.51709 46.2261 8.05209C46.5871 8.58709 46.7681 9.17209 46.7681 9.80609C46.7681 10.4781 46.6031 11.0601 46.2731 11.5521C45.9431 12.0431 45.5111 12.4201 44.9761 12.6811V12.8311C45.6731 13.0791 46.2261 13.4741 46.6371 14.0161C47.0471 14.5571 47.2531 15.2071 47.2531 15.9661C47.2531 16.7011 47.0571 17.3511 46.6651 17.9171C46.2656 18.4897 45.7167 18.9418 45.0781 19.2241C44.4131 19.5291 43.6751 19.6811 42.8661 19.6811H37.4531V6.31609ZM42.4931 11.7661C43.0411 11.7661 43.4791 11.6141 43.8091 11.3091C44.1391 11.0041 44.3041 10.6211 44.3041 10.1611C44.3041 9.71309 44.1451 9.33709 43.8281 9.03109C43.5101 8.72709 43.0901 8.57409 42.5681 8.57409H39.9731V11.7661H42.4931ZM42.7731 17.3851C43.3831 17.3851 43.8591 17.2261 44.2011 16.9091C44.5431 16.5921 44.7141 16.1781 44.7141 15.6681C44.7141 15.1581 44.5401 14.7411 44.1921 14.4171C43.8431 14.0931 43.3451 13.9321 42.6981 13.9321H39.9731V17.3851H42.7731ZM55.7001 19.9801C54.3931 19.9801 53.2081 19.6721 52.1441 19.0561C51.0944 18.4545 50.2268 17.5804 49.6331 16.5261C49.0231 15.4561 48.7181 14.2801 48.7181 12.9981C48.7181 11.7171 49.0231 10.5411 49.6331 9.47009C50.2266 8.41632 51.0939 7.54252 52.1431 6.94109C53.2091 6.32509 54.3931 6.01709 55.7011 6.01709C57.0071 6.01709 58.1931 6.32509 59.2571 6.94109C60.3065 7.5428 61.1738 8.41696 61.7671 9.47109C62.3771 10.5411 62.6821 11.7171 62.6821 12.9981C62.6821 14.2801 62.3771 15.4561 61.7671 16.5261C61.1738 17.5802 60.3065 18.4544 59.2571 19.0561C58.1931 19.6721 57.0061 19.9801 55.7001 19.9801ZM55.7001 17.5901C56.4904 17.5981 57.2689 17.3988 57.9581 17.0121C58.6373 16.6318 59.1966 16.0693 59.5731 15.3881C59.9651 14.6911 60.1611 13.8941 60.1611 12.9981C60.1611 12.1021 59.9651 11.3061 59.5731 10.6091C59.1966 9.92786 58.6373 9.36538 57.9581 8.98509C57.269 8.59799 56.4905 8.39835 55.7001 8.40609C54.9122 8.3974 54.136 8.59715 53.4501 8.98509C52.7753 9.36761 52.2197 9.92977 51.8451 10.6091C51.4531 11.3061 51.2571 12.1021 51.2571 12.9991C51.2571 13.8941 51.4531 14.6911 51.8451 15.3881C52.2197 16.0674 52.7753 16.6296 53.4501 17.0121C54.1361 17.3997 54.9123 17.5991 55.7001 17.5901ZM71.0531 19.9801C69.7461 19.9801 68.5611 19.6721 67.4971 19.0561C66.4477 18.4544 65.5805 17.5802 64.9871 16.5261C64.3771 15.4561 64.0721 14.2801 64.0721 12.9981C64.0721 11.7171 64.3771 10.5411 64.9861 9.47009C65.5799 8.41619 66.4475 7.54238 67.4971 6.94109C68.5611 6.32509 69.7471 6.01709 71.0531 6.01709C72.3601 6.01709 73.5451 6.32509 74.6091 6.94109C75.6585 7.5428 76.5258 8.41696 77.1191 9.47109C77.7291 10.5411 78.0341 11.7171 78.0341 12.9981C78.0341 14.2801 77.7291 15.4561 77.1201 16.5261C76.5265 17.5804 75.6589 18.4545 74.6091 19.0561C73.5451 19.6721 72.3591 19.9801 71.0531 19.9801ZM71.0531 17.5901C71.8437 17.5983 72.6226 17.399 73.3121 17.0121C73.9909 16.6317 74.5499 16.0692 74.9261 15.3881C75.3181 14.6911 75.5141 13.8941 75.5141 12.9981C75.5141 12.1021 75.3181 11.3061 74.9261 10.6091C74.5499 9.92799 73.9909 9.36553 73.3121 8.98509C72.6227 8.59782 71.8438 8.39817 71.0531 8.40609C70.2652 8.3974 69.489 8.59715 68.8031 8.98509C68.1283 9.36761 67.5727 9.92977 67.1981 10.6091C66.8061 11.3061 66.6101 12.1021 66.6101 12.9991C66.6101 13.8941 66.8061 14.6911 67.1981 15.3881C67.573 16.0675 68.1289 16.6297 68.8041 17.0121C69.4898 17.3995 70.2656 17.5989 71.0531 17.5901ZM80.2831 6.31709H82.8031V12.0471H82.9531L87.8431 6.31709H90.8861V6.46609L86.0531 11.9901L91.3911 19.5321V19.6811H88.3111L84.3171 13.9881L82.8051 15.7611V19.6811H80.2851V6.31609L80.2831 6.31709ZM94.2321 6.01709H97.4801L101.026 15.4071H101.176L104.721 6.01709H107.988V19.3821H105.487V12.7931L105.637 10.5721H105.487L102.089 19.3821H100.129L96.7131 10.5721H96.5641L96.7141 12.7931V19.3831H94.2311L94.2321 6.01709ZM115.032 6.01709H117.926L122.947 19.3821H120.166L119.046 16.1901H113.931L112.811 19.3821H110.03L115.032 6.01709ZM118.225 13.8761L117.049 10.5161L116.563 8.91009H116.414L115.929 10.5161L114.734 13.8761H118.225ZM125.006 6.01709H129.878C130.749 6.01709 131.524 6.19709 132.202 6.55809C132.88 6.91909 133.406 7.42009 133.779 8.06109C134.153 8.70109 134.339 9.42709 134.339 10.2361C134.339 11.0941 134.069 11.8561 133.527 12.5221C132.992 13.1835 132.285 13.6843 131.483 13.9691L131.465 14.0991L135.049 19.2331V19.3831H132.155L128.702 14.3611H127.526V19.3821H125.006V6.01709ZM129.859 12.0471C130.432 12.0471 130.899 11.8721 131.259 11.5241C131.62 11.1751 131.801 10.7341 131.801 10.1981C131.801 9.68809 131.629 9.25309 131.287 8.89209C130.945 8.53109 130.481 8.35009 129.897 8.35009H127.526V12.0461L129.859 12.0471ZM137.089 6.01709H139.609V11.7471H139.759L144.649 6.01709H147.692V6.16709L142.857 11.6921L148.197 19.2331V19.3831H145.117L141.121 13.6891L139.609 15.4621V19.3821H137.089V6.01709Z" fill="white"/>
<path d="M12.9531 25.0171C19.8567 25.0171 25.4531 19.4206 25.4531 12.5171C25.4531 5.61353 19.8567 0.0170898 12.9531 0.0170898C6.04957 0.0170898 0.453125 5.61353 0.453125 12.5171C0.453125 19.4206 6.04957 25.0171 12.9531 25.0171Z" fill="#5267DF"/>
<path fill-rule="evenodd" clip-rule="evenodd" d="M9.45312 9.01709V19.0171L12.9931 15.5771L16.5311 19.0171V9.01709C16.5311 8.48666 16.3204 7.97795 15.9453 7.60288C15.5703 7.2278 15.0616 7.01709 14.5311 7.01709H11.4531C10.9227 7.01709 10.414 7.2278 10.0389 7.60288C9.66384 7.97795 9.45312 8.48666 9.45312 9.01709Z" fill="white"/>
</svg>
