<svg width="659" height="466" viewBox="0 0 659 466" fill="none" xmlns="http://www.w3.org/2000/svg">
<g filter="url(#filter0_d_2211_83)">
<path d="M592.812 10.0841H66.8125C52.4531 10.0841 40.8125 21.7247 40.8125 36.0841V369.084C40.8125 383.444 52.4531 395.084 66.8125 395.084H592.812C607.172 395.084 618.812 383.444 618.812 369.084V36.0841C618.812 21.7247 607.172 10.0841 592.812 10.0841Z" fill="black"/>
</g>
<path d="M592.812 10.0841H66.8125C52.4531 10.0841 40.8125 21.7247 40.8125 36.0841V369.084C40.8125 383.444 52.4531 395.084 66.8125 395.084H592.812C607.172 395.084 618.812 383.444 618.812 369.084V36.0841C618.812 21.7247 607.172 10.0841 592.812 10.0841Z" fill="#777777"/>
<path d="M592.042 12.0841H67.8125C54.0054 12.0841 42.8125 23.277 42.8125 37.0841V368.949C42.8125 382.756 54.0054 393.949 67.8125 393.949H592.042C605.85 393.949 617.042 382.756 617.042 368.949V37.0841C617.042 23.277 605.85 12.0841 592.042 12.0841Z" fill="url(#paint0_linear_2211_83)"/>
<path opacity="0.1" d="M561.307 26.3871H99.8438C97.0823 26.3871 94.8438 28.6257 94.8438 31.3871V375.143C94.8438 377.905 97.0823 380.143 99.8438 380.143H561.307C564.068 380.143 566.307 377.905 566.307 375.143V31.3871C566.307 28.6257 564.068 26.3871 561.307 26.3871Z" fill="#2A2A2A"/>
<path d="M589.844 29.3871H69.8438C65.4255 29.3871 61.8438 32.9688 61.8438 37.3871V367.387C61.8438 371.805 65.4255 375.387 69.8438 375.387H589.844C594.262 375.387 597.844 371.805 597.844 367.387V37.3871C597.844 32.9688 594.262 29.3871 589.844 29.3871Z" fill="#E8EAF6"/>
<mask id="mask0_2211_83" style="mask-type:luminance" maskUnits="userSpaceOnUse" x="61" y="29" width="537" height="347">
<path d="M589.844 29.3871H69.8438C65.4255 29.3871 61.8438 32.9688 61.8438 37.3871V367.387C61.8438 371.805 65.4255 375.387 69.8438 375.387H589.844C594.262 375.387 597.844 371.805 597.844 367.387V37.3871C597.844 32.9688 594.262 29.3871 589.844 29.3871Z" fill="white"/>
</mask>
<g mask="url(#mask0_2211_83)">
<path fill-rule="evenodd" clip-rule="evenodd" d="M58.3125 29.5841H605.312V88.5841H58.3125V29.5841Z" fill="#5267DF"/>
<path opacity="0.245" d="M100.312 75.5841C109.149 75.5841 116.312 68.4207 116.312 59.5841C116.312 50.7476 109.149 43.5841 100.312 43.5841C91.4759 43.5841 84.3125 50.7476 84.3125 59.5841C84.3125 68.4207 91.4759 75.5841 100.312 75.5841Z" fill="white"/>
<path opacity="0.104" d="M561.312 75.5841C570.149 75.5841 577.312 68.4207 577.312 59.5841C577.312 50.7476 570.149 43.5841 561.312 43.5841C552.476 43.5841 545.312 50.7476 545.312 59.5841C545.312 68.4207 552.476 75.5841 561.312 75.5841Z" fill="white"/>
<path opacity="0.75" d="M248.312 49.5841H134.312C132.656 49.5841 131.312 50.9273 131.312 52.5841C131.312 54.241 132.656 55.5841 134.312 55.5841H248.312C249.969 55.5841 251.312 54.241 251.312 52.5841C251.312 50.9273 249.969 49.5841 248.312 49.5841Z" fill="white"/>
<path opacity="0.25" d="M192.312 63.5841H134.312C132.656 63.5841 131.312 64.9273 131.312 66.5841C131.312 68.241 132.656 69.5841 134.312 69.5841H192.312C193.969 69.5841 195.312 68.241 195.312 66.5841C195.312 64.9273 193.969 63.5841 192.312 63.5841Z" fill="white"/>
</g>
<mask id="mask1_2211_83" style="mask-type:luminance" maskUnits="userSpaceOnUse" x="61" y="29" width="537" height="347">
<path d="M589.844 29.3871H69.8438C65.4255 29.3871 61.8438 32.9688 61.8438 37.3871V367.387C61.8438 371.805 65.4255 375.387 69.8438 375.387H589.844C594.262 375.387 597.844 371.805 597.844 367.387V37.3871C597.844 32.9688 594.262 29.3871 589.844 29.3871Z" fill="white"/>
</mask>
<g mask="url(#mask1_2211_83)">
<path d="M371.844 122.387H126.844C122.425 122.387 118.844 125.969 118.844 130.387V430.387C118.844 434.805 122.425 438.387 126.844 438.387H371.844C376.262 438.387 379.844 434.805 379.844 430.387V130.387C379.844 125.969 376.262 122.387 371.844 122.387Z" fill="white"/>
<path d="M533.844 122.387H421.844C417.425 122.387 413.844 125.969 413.844 130.387V430.387C413.844 434.805 417.425 438.387 421.844 438.387H533.844C538.262 438.387 541.844 434.805 541.844 430.387V130.387C541.844 125.969 538.262 122.387 533.844 122.387Z" fill="white"/>
<path opacity="0.5" d="M314.312 160.584H200.312C198.656 160.584 197.312 161.927 197.312 163.584C197.312 165.241 198.656 166.584 200.312 166.584H314.312C315.969 166.584 317.312 165.241 317.312 163.584C317.312 161.927 315.969 160.584 314.312 160.584Z" fill="#242A45"/>
</g>
<path d="M166.312 186.584C175.149 186.584 182.312 179.421 182.312 170.584C182.312 161.748 175.149 154.584 166.312 154.584C157.476 154.584 150.312 161.748 150.312 170.584C150.312 179.421 157.476 186.584 166.312 186.584Z" fill="#F98E5D"/>
<path opacity="0.25" d="M519.312 144.584H437.312C435.656 144.584 434.312 145.927 434.312 147.584C434.312 149.241 435.656 150.584 437.312 150.584H519.312C520.969 150.584 522.312 149.241 522.312 147.584C522.312 145.927 520.969 144.584 519.312 144.584Z" fill="#242A45"/>
<path opacity="0.25" d="M519.312 164.584H437.312C435.656 164.584 434.312 165.927 434.312 167.584C434.312 169.241 435.656 170.584 437.312 170.584H519.312C520.969 170.584 522.312 169.241 522.312 167.584C522.312 165.927 520.969 164.584 519.312 164.584Z" fill="#242A45"/>
<path opacity="0.25" d="M519.312 184.584H437.312C435.656 184.584 434.312 185.927 434.312 187.584C434.312 189.241 435.656 190.584 437.312 190.584H519.312C520.969 190.584 522.312 189.241 522.312 187.584C522.312 185.927 520.969 184.584 519.312 184.584Z" fill="#242A45"/>
<path opacity="0.25" d="M519.312 204.584H437.312C435.656 204.584 434.312 205.927 434.312 207.584C434.312 209.241 435.656 210.584 437.312 210.584H519.312C520.969 210.584 522.312 209.241 522.312 207.584C522.312 205.927 520.969 204.584 519.312 204.584Z" fill="#242A45"/>
<path opacity="0.25" d="M519.312 238.584H437.312C435.656 238.584 434.312 239.927 434.312 241.584C434.312 243.241 435.656 244.584 437.312 244.584H519.312C520.969 244.584 522.312 243.241 522.312 241.584C522.312 239.927 520.969 238.584 519.312 238.584Z" fill="#242A45"/>
<path opacity="0.25" d="M519.312 258.584H437.312C435.656 258.584 434.312 259.927 434.312 261.584C434.312 263.241 435.656 264.584 437.312 264.584H519.312C520.969 264.584 522.312 263.241 522.312 261.584C522.312 259.927 520.969 258.584 519.312 258.584Z" fill="#242A45"/>
<path opacity="0.25" d="M519.312 278.584H437.312C435.656 278.584 434.312 279.927 434.312 281.584C434.312 283.241 435.656 284.584 437.312 284.584H519.312C520.969 284.584 522.312 283.241 522.312 281.584C522.312 279.927 520.969 278.584 519.312 278.584Z" fill="#242A45"/>
<path opacity="0.25" d="M258.312 174.584H200.312C198.656 174.584 197.312 175.927 197.312 177.584C197.312 179.241 198.656 180.584 200.312 180.584H258.312C259.969 180.584 261.312 179.241 261.312 177.584C261.312 175.927 259.969 174.584 258.312 174.584Z" fill="#242A45"/>
<path d="M166.312 242.584C175.149 242.584 182.312 235.421 182.312 226.584C182.312 217.748 175.149 210.584 166.312 210.584C157.476 210.584 150.312 217.748 150.312 226.584C150.312 235.421 157.476 242.584 166.312 242.584Z" fill="#6AC6D6"/>
<path opacity="0.5" d="M314.312 216.584H200.312C198.656 216.584 197.312 217.927 197.312 219.584C197.312 221.241 198.656 222.584 200.312 222.584H314.312C315.969 222.584 317.312 221.241 317.312 219.584C317.312 217.927 315.969 216.584 314.312 216.584Z" fill="#242A45"/>
<path opacity="0.25" d="M258.312 230.584H200.312C198.656 230.584 197.312 231.927 197.312 233.584C197.312 235.241 198.656 236.584 200.312 236.584H258.312C259.969 236.584 261.312 235.241 261.312 233.584C261.312 231.927 259.969 230.584 258.312 230.584Z" fill="#242A45"/>
<path d="M166.312 298.584C175.149 298.584 182.312 291.421 182.312 282.584C182.312 273.748 175.149 266.584 166.312 266.584C157.476 266.584 150.312 273.748 150.312 282.584C150.312 291.421 157.476 298.584 166.312 298.584Z" fill="#A47ED4"/>
<path opacity="0.5" d="M314.312 272.584H200.312C198.656 272.584 197.312 273.927 197.312 275.584C197.312 277.241 198.656 278.584 200.312 278.584H314.312C315.969 278.584 317.312 277.241 317.312 275.584C317.312 273.927 315.969 272.584 314.312 272.584Z" fill="#242A45"/>
<path opacity="0.25" d="M258.312 286.584H200.312C198.656 286.584 197.312 287.927 197.312 289.584C197.312 291.241 198.656 292.584 200.312 292.584H258.312C259.969 292.584 261.312 291.241 261.312 289.584C261.312 287.927 259.969 286.584 258.312 286.584Z" fill="#242A45"/>
<path d="M166.312 354.584C175.149 354.584 182.312 347.421 182.312 338.584C182.312 329.748 175.149 322.584 166.312 322.584C157.476 322.584 150.312 329.748 150.312 338.584C150.312 347.421 157.476 354.584 166.312 354.584Z" fill="#EC7878"/>
<path opacity="0.5" d="M314.312 328.584H200.312C198.656 328.584 197.312 329.927 197.312 331.584C197.312 333.241 198.656 334.584 200.312 334.584H314.312C315.969 334.584 317.312 333.241 317.312 331.584C317.312 329.927 315.969 328.584 314.312 328.584Z" fill="#242A45"/>
<path opacity="0.25" d="M258.312 342.584H200.312C198.656 342.584 197.312 343.927 197.312 345.584C197.312 347.241 198.656 348.584 200.312 348.584H258.312C259.969 348.584 261.312 347.241 261.312 345.584C261.312 343.927 259.969 342.584 258.312 342.584Z" fill="#242A45"/>
<defs>
<filter id="filter0_d_2211_83" x="0.8125" y="0.0841064" width="658" height="465" filterUnits="userSpaceOnUse" color-interpolation-filters="sRGB">
<feFlood flood-opacity="0" result="BackgroundImageFix"/>
<feColorMatrix in="SourceAlpha" type="matrix" values="0 0 0 0 0 0 0 0 0 0 0 0 0 0 0 0 0 0 127 0" result="hardAlpha"/>
<feOffset dy="30"/>
<feGaussianBlur stdDeviation="20"/>
<feColorMatrix type="matrix" values="0 0 0 0 0.182433 0 0 0 0 0.230633 0 0 0 0 0.506058 0 0 0 0.20012 0"/>
<feBlend mode="normal" in2="BackgroundImageFix" result="effect1_dropShadow_2211_83"/>
<feBlend mode="normal" in="SourceGraphic" in2="effect1_dropShadow_2211_83" result="shape"/>
</filter>
<linearGradient id="paint0_linear_2211_83" x1="56899" y1="27382.3" x2="10977.7" y2="-3155.27" gradientUnits="userSpaceOnUse">
<stop stop-color="#151515"/>
<stop offset="1" stop-color="#3D3D3D"/>
</linearGradient>
</defs>
</svg>
